<svg viewBox="0 0 1455 400" xmlns="http://www.w3.org/2000/svg"><g><g><g><g><g><line x1="41.140000343322754" y1="151.25787372322642" x2="36.140000343322754" y2="151.25787372322642" style="visibility: inherit;" fill="rgb(0, 0, 0)" stroke="rgb(204, 204, 204)" stroke-width="1px"></line></g><g transform="translate(31.140000343322754, 0)"><text style="text-anchor: end; visibility: inherit; font-family: &quot;Helvetica Neue&quot;, sans-serif; font-size: 12px; font-weight: 200;" x="0" y="151.25787372322642" dx="0em" dy="0.3em" fill="rgb(50, 49, 63)" stroke="none" stroke-width="1px">0.7</text></g><line x1="41.140000343322754" y1="0" x2="41.140000343322754" y2="377.95999908447266" fill="rgb(0, 0, 0)" stroke="rgb(204, 204, 204)" stroke-width="1px"></line></g></g><g transform="translate(41, 0)" clip-path="url(#clip_0)"><clipPath id="clip_0"><rect width="1413" height="377"></rect></clipPath><g><g><g><line x1="0" y1="0" x2="0" y2="377.95999908447266" fill="rgb(0, 0, 0)" stroke="rgb(60, 60, 60)" stroke-width="1px" opacity="0.25"></line><line x1="176.73249995708468" y1="0" x2="176.73249995708468" y2="377.95999908447266" fill="rgb(0, 0, 0)" stroke="rgb(60, 60, 60)" stroke-width="1px" opacity="0.25"></line><line x1="353.46499991416937" y1="0" x2="353.46499991416937" y2="377.95999908447266" fill="rgb(0, 0, 0)" stroke="rgb(60, 60, 60)" stroke-width="1px" opacity="0.25"></line><line x1="530.1974998712541" y1="0" x2="530.1974998712541" y2="377.95999908447266" fill="rgb(0, 0, 0)" stroke="rgb(60, 60, 60)" stroke-width="1px" opacity="0.25"></line><line x1="706.9299998283387" y1="0" x2="706.9299998283387" y2="377.95999908447266" fill="rgb(0, 0, 0)" stroke="rgb(60, 60, 60)" stroke-width="1px" opacity="0.25"></line><line x1="883.6624997854233" y1="0" x2="883.6624997854233" y2="377.95999908447266" fill="rgb(0, 0, 0)" stroke="rgb(60, 60, 60)" stroke-width="1px" opacity="0.25"></line><line x1="1060.394999742508" y1="0" x2="1060.394999742508" y2="377.95999908447266" fill="rgb(0, 0, 0)" stroke="rgb(60, 60, 60)" stroke-width="1px" opacity="0.25"></line><line x1="1237.1274996995926" y1="0" x2="1237.1274996995926" y2="377.95999908447266" fill="rgb(0, 0, 0)" stroke="rgb(60, 60, 60)" stroke-width="1px" opacity="0.25"></line><line x1="1413.8599996566772" y1="0" x2="1413.8599996566772" y2="377.95999908447266" fill="rgb(0, 0, 0)" stroke="rgb(60, 60, 60)" stroke-width="1px" opacity="0.25"></line></g><g><line x1="0" y1="151.25787372322642" x2="1413.8599996566772" y2="151.25787372322642" fill="rgb(0, 0, 0)" stroke="rgb(60, 60, 60)" stroke-width="1px" opacity="0.25"></line></g></g></g><g><g><line x1="176.73249995708468" y1="0" x2="176.73249995708468" y2="377.95999908447266" fill="rgb(0, 0, 0)" stroke="rgb(153, 153, 153)" stroke-width="1.5px"></line></g></g><g><g><g><g><g><path style="fill: none;" stroke="rgb(255, 112, 67)" stroke-width="2px" d="M210.3126567961527,-210.68072706637088L243.8879043991109,53.99428558349558L277.228490516015,156.7397961172792L310.5494396884793,215.58353983689648L343.9302815414846,253.50530276127154L377.2463214778391,273.08030246228566L410.79800474746963,289.3674796967284L444.6678065170228,285.95466690473864L479.2268650364088,292.8121143508313L512.923861694893,296.15169060529365L546.6169309644891,301.13145231179703L580.1941422618912,302.21067400487493L613.6947694759788,297.71434323260274L647.1639775789625,296.042604540887L680.7186063902591,299.81338751866156L714.2054877432387,308.56748713644294L747.765025790645,306.67916115966466L781.0879386575534,308.627199594102L814.5561649133152,321.5028523308541L848.1304306690513,338.8510039736556L881.8991021747404,317.7670342108686L915.7492669998542,318.6305341924343L949.3824435889094,319.37521250968047L983.0156201779645,317.1302526274476L1016.8638213086342,323.96571350097764L1050.7778062031766,314.8315473488614L1084.3805455283505,314.9447488285295L1118.536064839501,315.0808205111415L1152.3793567340606,322.4311829720054L1186.181411045297,321.2922446870419L1220.9996772312868,322.8347894448948L1255.414404209041,320.11125036001965L1289.556177659084,321.6633173351388L1323.932612595181,331.7391834118682" fill="none"></path></g></g></g></g><g opacity="0.2"><g><g><g><path style="fill: none;" stroke="rgb(255, 112, 67)" stroke-width="2px" d="M176.73249995708468,-1041.8224921557337L210.3126567961527,301.26029268880836L243.8879043991109,305.14990362390984L277.228490516015,274.1569295415791L310.5494396884793,289.6400179471642L343.9302815414846,303.80592245783566L377.2463214778391,299.808432687611L410.79800474746963,311.9921334979101L444.6678065170228,281.17378833548L479.2268650364088,302.48372511942944L512.923861694893,300.8765635765802L546.6169309644891,308.1920858514777L580.1941422618912,303.7421557482341L613.6947694759788,291.33243696337854L647.1639775789625,293.6682637122027L680.7186063902591,305.17276565689104L714.2054877432387,321.016721713896L747.765025790645,303.99602116762566L781.0879386575534,311.39623890848753L814.5561649133152,339.8228118354281L848.1304306690513,363.5445905365543L881.8991021747404,287.8552667920748L915.7492669998542,319.857915025599L949.3824435889094,320.43369261816486L983.0156201779645,313.9401035837586L1016.8638213086342,333.68674533367647L1050.7778062031766,301.85936421486696L1084.3805455283505,315.1056444278165L1118.536064839501,315.2742224302442L1152.3793567340606,332.8849623906346L1186.181411045297,319.67362302490994L1220.9996772312868,325.02751272696435L1255.414404209041,316.2411769667027L1289.556177659084,323.86957834111035L1323.932612595181,346.0725978726322" fill="none"></path></g></g></g></g></g></g><g transform="translate(41, 377)" clip-path="url(#clip_1)"><clipPath id="clip_1"><rect width="1413" height="22"></rect></clipPath><g><g><line x1="0" y1="0" x2="0" y2="5" style="visibility: inherit;" fill="rgb(0, 0, 0)" stroke="rgb(204, 204, 204)" stroke-width="1px"></line><line x1="176.73249995708468" y1="0" x2="176.73249995708468" y2="5" style="visibility: inherit;" fill="rgb(0, 0, 0)" stroke="rgb(204, 204, 204)" stroke-width="1px"></line><line x1="353.46499991416937" y1="0" x2="353.46499991416937" y2="5" style="visibility: inherit;" fill="rgb(0, 0, 0)" stroke="rgb(204, 204, 204)" stroke-width="1px"></line><line x1="530.1974998712541" y1="0" x2="530.1974998712541" y2="5" style="visibility: inherit;" fill="rgb(0, 0, 0)" stroke="rgb(204, 204, 204)" stroke-width="1px"></line><line x1="706.9299998283387" y1="0" x2="706.9299998283387" y2="5" style="visibility: inherit;" fill="rgb(0, 0, 0)" stroke="rgb(204, 204, 204)" stroke-width="1px"></line><line x1="883.6624997854233" y1="0" x2="883.6624997854233" y2="5" style="visibility: inherit;" fill="rgb(0, 0, 0)" stroke="rgb(204, 204, 204)" stroke-width="1px"></line><line x1="1060.394999742508" y1="0" x2="1060.394999742508" y2="5" style="visibility: inherit;" fill="rgb(0, 0, 0)" stroke="rgb(204, 204, 204)" stroke-width="1px"></line><line x1="1237.1274996995926" y1="0" x2="1237.1274996995926" y2="5" style="visibility: inherit;" fill="rgb(0, 0, 0)" stroke="rgb(204, 204, 204)" stroke-width="1px"></line><line x1="1413.8599996566772" y1="0" x2="1413.8599996566772" y2="5" style="visibility: inherit;" fill="rgb(0, 0, 0)" stroke="rgb(204, 204, 204)" stroke-width="1px"></line></g><g transform="translate(0, 8)"><text style="text-anchor: middle; visibility: hidden; font-family: &quot;Helvetica Neue&quot;, sans-serif; font-size: 12px; font-weight: 200;" x="0" y="0" dx="0em" dy="0.95em" fill="rgb(50, 49, 63)" stroke="none" stroke-width="1px">-0.05</text><text style="text-anchor: middle; visibility: inherit; font-family: &quot;Helvetica Neue&quot;, sans-serif; font-size: 12px; font-weight: 200;" x="176.73249995708468" y="0" dx="0em" dy="0.95em" fill="rgb(50, 49, 63)" stroke="none" stroke-width="1px">0</text><text style="text-anchor: middle; visibility: inherit; font-family: &quot;Helvetica Neue&quot;, sans-serif; font-size: 12px; font-weight: 200;" x="353.46499991416937" y="0" dx="0em" dy="0.95em" fill="rgb(50, 49, 63)" stroke="none" stroke-width="1px">0.05</text><text style="text-anchor: middle; visibility: inherit; font-family: &quot;Helvetica Neue&quot;, sans-serif; font-size: 12px; font-weight: 200;" x="530.1974998712541" y="0" dx="0em" dy="0.95em" fill="rgb(50, 49, 63)" stroke="none" stroke-width="1px">0.1</text><text style="text-anchor: middle; visibility: inherit; font-family: &quot;Helvetica Neue&quot;, sans-serif; font-size: 12px; font-weight: 200;" x="706.9299998283387" y="0" dx="0em" dy="0.95em" fill="rgb(50, 49, 63)" stroke="none" stroke-width="1px">0.15</text><text style="text-anchor: middle; visibility: inherit; font-family: &quot;Helvetica Neue&quot;, sans-serif; font-size: 12px; font-weight: 200;" x="883.6624997854233" y="0" dx="0em" dy="0.95em" fill="rgb(50, 49, 63)" stroke="none" stroke-width="1px">0.2</text><text style="text-anchor: middle; visibility: inherit; font-family: &quot;Helvetica Neue&quot;, sans-serif; font-size: 12px; font-weight: 200;" x="1060.394999742508" y="0" dx="0em" dy="0.95em" fill="rgb(50, 49, 63)" stroke="none" stroke-width="1px">0.25</text><text style="text-anchor: middle; visibility: inherit; font-family: &quot;Helvetica Neue&quot;, sans-serif; font-size: 12px; font-weight: 200;" x="1237.1274996995926" y="0" dx="0em" dy="0.95em" fill="rgb(50, 49, 63)" stroke="none" stroke-width="1px">0.3</text><text style="text-anchor: middle; visibility: hidden; font-family: &quot;Helvetica Neue&quot;, sans-serif; font-size: 12px; font-weight: 200;" x="1413.8599996566772" y="0" dx="0em" dy="0.95em" fill="rgb(50, 49, 63)" stroke="none" stroke-width="1px">0.35</text></g><line x1="0" y1="0" x2="1413.8599996566772" y2="0" fill="rgb(0, 0, 0)" stroke="rgb(204, 204, 204)" stroke-width="1px"></line></g></g></g></g></svg>